<svg width="16" height="14" viewBox="0 0 16 14" fill="none" xmlns="http://www.w3.org/2000/svg">
<g clip-path="url(#clip0_97_394)">
<path d="M1.57924 9.2832C2.51786 9.2832 3.15807 9.90942 3.15807 10.8595C3.15807 11.8312 2.51786 12.457 1.57924 12.457C0.64061 12.457 0 11.8312 0 10.8595C0 9.90942 0.640209 9.2832 1.57924 9.2832Z" fill="white"/>
<path d="M9.28584 12.9246V4.97842C9.28133 4.38334 9.18651 3.79249 9.00469 3.22655C8.99104 3.18306 8.97698 3.13999 8.96212 3.09651C7.56201 -1.03224 1.72342 -1.03224 0.321309 3.09691C0.30685 3.13999 0.292793 3.18347 0.281146 3.22655C0.0993274 3.79249 0.00450652 4.38334 0 4.97842L0 7.51134H3.24442C3.28064 7.51134 3.31537 7.49678 3.34098 7.47087C3.36659 7.44496 3.38098 7.40981 3.38098 7.37317V5.06416C3.38098 5.03165 3.38098 4.99914 3.38098 4.96704C3.42114 3.32773 5.86269 3.32773 5.90245 4.96704C5.90245 4.99914 5.90245 5.03165 5.90245 5.06416V10.6018C5.9024 10.9795 5.976 11.3536 6.11905 11.7025C6.2621 12.0514 6.47178 12.3683 6.73609 12.6351C7.00039 12.9018 7.31411 13.1132 7.65929 13.2571C8.00447 13.401 8.37432 13.4746 8.74765 13.4736C8.81862 13.4734 8.88885 13.459 8.95431 13.4312C9.01978 13.4035 9.0792 13.363 9.12918 13.312C9.17916 13.261 9.21872 13.2005 9.2456 13.1341C9.27248 13.0676 9.28616 12.9964 9.28584 12.9246Z" fill="white"/>
<path d="M10.6357 8.39885V13.4448H11.0133C11.6682 13.4448 12.3167 13.3143 12.9217 13.0607C13.5268 12.8071 14.0765 12.4354 14.5396 11.9668C15.0026 11.4983 15.3699 10.942 15.6205 10.3298C15.8711 9.71761 16.0001 9.06147 16 8.39885C16 7.2098 14.9272 5.7749 13.3343 5.7749C11.6732 5.7749 10.6357 7.2098 10.6357 8.39885Z" fill="white"/>
</g>
<defs>
<clipPath id="clip0_97_394">
<rect width="16" height="13.4737" fill="white"/>
</clipPath>
</defs>
</svg>
